<svg version="1" xmlns="http://www.w3.org/2000/svg" width="933.333" height="933.333" viewBox="0 0 700.000000 700.000000"><path d="M394.8 56.8L370 57l-.1 189.8c-.1 104.3-.2 191.8-.4 194.4-.7 9.9-2.2 18.6-5.2 28.8-3.7 12.8-8.9 22.6-15.8 29.7-7.3 7.6-13.3 10.5-23.2 11.1-14.8.9-28.5-5.5-53.7-25.2-7.4-5.8-9-6.7-10.1-5.5-1.2 1.3-23.6 30.4-45.3 58.8-5.2 6.8-13.7 17.8-18.9 24.5-9 11.6-10.3 13.3-13 16.7-1 1.2-.3 2.4 4 6.9 45.6 47.8 124.2 68.2 190.7 49.5 47.8-13.4 87.4-46.2 111.8-92.5 11.9-22.4 21.1-52.2 23.8-76.9.3-3 .8-6.4 1.1-7.5.3-1.2.7-92.2.9-202.4l.2-200.2H486v10.2c-.1 5.7-.3 94.9-.5 198.3s-.6 189.3-.9 191c-.3 1.6-.8 5.5-1.1 8.5-.4 3-.8 5.7-1 6-.1.3-.6 2.6-.9 5.2-.4 2.7-1.7 9-3.1 14-11.7 45-36.9 82.3-70.2 104.1-53.8 35.1-122 30.2-182.5-13.1-4.3-3-7.8-5.9-7.8-6.5 0-.8 2.7-4.5 7.7-10.7.7-.8 9.2-11.6 18.9-24 9.6-12.4 18.1-23.1 18.8-23.8 1-1 2.6-.4 8.2 3.3 23.3 15.3 49.2 21.6 69.8 17 19.7-4.3 36.2-18 45.9-37.9 7.7-15.8 12.1-35.1 13.3-58.6.1-3 .3-83.4.3-178.7l.1-173.2h26.5l-.1 177.7c-.1 97.7-.4 181.3-.8 185.7-3.1 37.2-15.3 67.6-35 87-13.2 13.1-26.9 20.3-47 24.6-22.9 5-44.3 1.1-66.3-12.3-3.5-2.1-6.7-3.8-7.2-3.8-.8 0-17.2 21.9-17.9 23.8-.4 1.2 14 9.2 23.5 13 39.6 15.9 83.5 11.6 118.7-11.5 9.6-6.3 25.8-22.8 33-33.6 16.1-24.2 26.9-56.9 29.2-88.7.9-12.8 1.1-390.9.2-392.3-.8-1.3-14.6-1.5-63-.9z"/></svg>